<?xml version="1.0" encoding="utf-8"?>
<!-- Generator: Adobe Illustrator 19.1.0, SVG Export Plug-In . SVG Version: 6.00 Build 0)  -->
<svg version="1.1" id="Layer_1" xmlns="http://www.w3.org/2000/svg" xmlns:xlink="http://www.w3.org/1999/xlink" x="0px" y="0px"
	 viewBox="0 0 75.1 28.7" style="enable-background:new 0 0 75.1 28.7;" xml:space="preserve">
<style type="text/css">
	.st0{fill:#8BC541;}
	.st1{fill:#F69220;}
	.st2{fill:#F5CB15;}
	.st3{fill:#D8DF27;}
	.st4{fill:#29A9E1;}
	.st5{fill:#EEB135;}
	.st6{fill:#0D72B9;}
	.st7{opacity:0.35;fill:url(#SVGID_1_);}
	.st8{opacity:0.35;fill:url(#SVGID_2_);}
</style>
<g>
	<g>
		<path class="st0" d="M52.5,7.4C47.7,2.8,41.7,0,35.3,0c-7.9,0-15.1,4.2-20.3,10.9c4.3,0.4,9.2,1.3,14.4,2.8
			C36.7,10.5,44.9,8.3,52.5,7.4z"/>
		<path class="st1" d="M59.3,7c-2.2,0-4.5,0.1-6.8,0.4c0.1,0.1,0.2,0.2,0.3,0.3c0.2,0.2,0.4,0.4,0.5,0.5c0.1,0.1,0.3,0.3,0.4,0.5
			c0.2,0.2,0.3,0.4,0.5,0.6c0.1,0.2,0.3,0.3,0.4,0.5c0.2,0.2,0.3,0.4,0.5,0.6c0.1,0.2,0.3,0.3,0.4,0.5c0.2,0.2,0.3,0.4,0.5,0.6
			c0.1,0.2,0.3,0.3,0.4,0.5c0.1,0.2,0.3,0.4,0.4,0.6c0.1,0.2,0.2,0.4,0.4,0.5c0.1,0.2,0.3,0.4,0.4,0.7c0.1,0.2,0.2,0.4,0.4,0.6
			c0.1,0.2,0.3,0.4,0.4,0.7c0.1,0.2,0.2,0.4,0.3,0.6c0.1,0.2,0.3,0.5,0.4,0.7c0.1,0.2,0.2,0.4,0.3,0.6c0.1,0.2,0.2,0.5,0.4,0.7
			c0.1,0.2,0.2,0.4,0.3,0.6c0.1,0.2,0.2,0.5,0.3,0.7c0.1,0.2,0.2,0.4,0.3,0.6c0.1,0.3,0.2,0.5,0.3,0.8c0.1,0.2,0.2,0.4,0.3,0.6
			c0.1,0.3,0.2,0.5,0.3,0.8c0.1,0.2,0.2,0.4,0.2,0.7c0.1,0.3,0.2,0.5,0.3,0.8c0.1,0.2,0.1,0.4,0.2,0.6c0.1,0.3,0.2,0.6,0.2,0.9
			c0.1,0.2,0.1,0.4,0.2,0.6c0.1,0.3,0.2,0.6,0.2,0.9c0,0.2,0.1,0.4,0.1,0.6c0.1,0.4,0.2,0.7,0.2,1.1c0,0.1,0.2,0.6,0.2,0.6
			c2.1,0,4.4-2.1,6-3.8C80,14.4,75.5,7,59.3,7z"/>
		<path class="st0" d="M58,14.4c0.1,0.2,0.3,0.4,0.4,0.7C58.2,14.8,58.1,14.6,58,14.4z"/>
		<path class="st0" d="M57.2,13.2c0.1,0.2,0.3,0.4,0.4,0.7C57.5,13.6,57.3,13.4,57.2,13.2z"/>
		<path class="st0" d="M54.7,9.8c0.2,0.2,0.3,0.4,0.5,0.6C55,10.2,54.8,10,54.7,9.8z"/>
		<path class="st0" d="M53.7,8.7c0.2,0.2,0.3,0.4,0.5,0.6C54.1,9.1,53.9,8.9,53.7,8.7z"/>
		<path class="st0" d="M55.5,10.9c0.2,0.2,0.3,0.4,0.5,0.6C55.8,11.3,55.7,11.1,55.5,10.9z"/>
		<path class="st0" d="M52.8,7.7c0.2,0.2,0.4,0.4,0.5,0.5C53.2,8.1,53,7.9,52.8,7.7z"/>
		<path class="st0" d="M56.4,12c0.1,0.2,0.3,0.4,0.4,0.6C56.7,12.4,56.5,12.2,56.4,12z"/>
		<path class="st2" d="M53.3,8.3c0.1,0.1,0.3,0.3,0.4,0.5C53.6,8.6,53.5,8.4,53.3,8.3z"/>
		<path class="st2" d="M52.5,7.4C52.5,7.4,52.5,7.4,52.5,7.4c0.1,0.1,0.2,0.2,0.3,0.3C52.7,7.6,52.6,7.5,52.5,7.4z"/>
		<path class="st2" d="M57.6,13.8c0.1,0.2,0.2,0.4,0.4,0.6C57.8,14.2,57.7,14,57.6,13.8z"/>
		<path class="st2" d="M56.8,12.6c0.1,0.2,0.2,0.4,0.4,0.5C57.1,13,56.9,12.8,56.8,12.6z"/>
		<path class="st2" d="M56,11.5c0.1,0.2,0.3,0.3,0.4,0.5C56.3,11.8,56.1,11.6,56,11.5z"/>
		<path class="st2" d="M54.3,9.3c0.1,0.2,0.3,0.3,0.4,0.5C54.5,9.6,54.4,9.5,54.3,9.3z"/>
		<path class="st2" d="M55.1,10.4c0.1,0.2,0.3,0.3,0.4,0.5C55.4,10.7,55.3,10.5,55.1,10.4z"/>
		<path class="st3" d="M63.4,28.7c0-0.1-0.1-0.4-0.2-0.6c-0.1-0.4-0.1-0.7-0.2-1.1c0-0.2-0.1-0.4-0.1-0.6c-0.1-0.3-0.1-0.6-0.2-0.9
			c-0.1-0.2-0.1-0.4-0.2-0.6c-0.1-0.3-0.2-0.6-0.2-0.9c-0.1-0.2-0.1-0.4-0.2-0.6c-0.1-0.3-0.2-0.6-0.3-0.8c-0.1-0.2-0.2-0.4-0.2-0.7
			c-0.1-0.3-0.2-0.5-0.3-0.8c-0.1-0.2-0.2-0.4-0.3-0.6c-0.1-0.3-0.2-0.5-0.3-0.8c-0.1-0.2-0.2-0.4-0.3-0.6c-0.1-0.2-0.2-0.5-0.3-0.7
			c-0.1-0.2-0.2-0.4-0.3-0.6c-0.1-0.2-0.2-0.5-0.4-0.7c-0.1-0.2-0.2-0.4-0.3-0.6c-0.1-0.2-0.2-0.5-0.4-0.7c-0.1-0.2-0.2-0.4-0.3-0.6
			c-0.1-0.2-0.3-0.4-0.4-0.7c-0.1-0.2-0.2-0.4-0.4-0.6c-0.1-0.2-0.3-0.4-0.4-0.7c-0.1-0.2-0.2-0.4-0.4-0.5c-0.1-0.2-0.3-0.4-0.4-0.6
			c-0.1-0.2-0.3-0.4-0.4-0.5c-0.2-0.2-0.3-0.4-0.5-0.6c-0.1-0.2-0.3-0.3-0.4-0.5c-0.2-0.2-0.3-0.4-0.5-0.6c-0.1-0.2-0.3-0.3-0.4-0.5
			c-0.2-0.2-0.3-0.4-0.5-0.6c-0.1-0.2-0.3-0.3-0.4-0.5c-0.2-0.2-0.3-0.4-0.5-0.5c-0.1-0.1-0.2-0.2-0.3-0.3
			c-7.6,0.9-15.7,3.1-23.2,6.2C40.4,16.7,52.8,22.2,63.4,28.7z"/>
		<path class="st4" d="M14.9,10.9c0,0-0.1,0.1-0.1,0.1c-0.4,0.5-0.8,1.1-1.2,1.6c-0.1,0.1-0.1,0.2-0.2,0.3c0,0.1-0.1,0.1-0.1,0.2
			c-0.3,0.4-0.6,0.9-0.8,1.3c0,0.1-0.1,0.2-0.1,0.2c0,0,0,0,0,0c-0.2,0.3-0.3,0.6-0.5,0.9c-0.1,0.2-0.2,0.3-0.3,0.5
			c-0.1,0.2-0.2,0.3-0.2,0.5c-0.1,0.1-0.1,0.2-0.2,0.3c-0.3,0.6-0.6,1.2-0.9,1.8c-0.1,0.1-0.1,0.3-0.2,0.4c-0.3,0.7-0.5,1.2-0.9,2
			C9,22,8.8,22.4,8.5,23.2l-0.7,2.3c0,0.1-0.2,0.6-0.2,0.7C7.4,27,7.2,28,7,28.7c0,0,0,0,0.1,0c0,0,0,0-0.1,0l-0.1,0
			c-10.4-10.3-9.3-18,4.4-18C12.5,10.8,13.7,10.8,14.9,10.9z"/>
		<path class="st4" d="M13.3,13c-0.3,0.4-0.6,0.9-0.8,1.3C12.7,13.9,13,13.4,13.3,13z"/>
		<path class="st5" d="M14.9,10.7c0,0-0.1,0.1-0.1,0.1C14.8,10.8,14.8,10.8,14.9,10.7C14.9,10.7,14.9,10.7,14.9,10.7z"/>
		<path class="st6" d="M29.3,13.6c-7.4,3.1-14.1,7.1-18.6,11.7c-1.5,1.5-3.1,2.9-3.6,3.4c0,0,0,0,0,0c-0.1,0-0.1,0-0.1,0
			C7.2,28,7.4,27,7.6,26.2c0-0.1,0.2-0.6,0.2-0.7l0.7-2.3C8.8,22.4,9,22,9.2,21.2c0.3-0.8,0.6-1.4,0.9-2c0.1-0.1,0.1-0.3,0.2-0.4
			c0.3-0.6,0.6-1.2,0.9-1.8c0.1-0.1,0.1-0.2,0.2-0.3c0.1-0.2,0.2-0.3,0.2-0.5c0.1-0.2,0.2-0.3,0.3-0.5c0.2-0.3,0.3-0.6,0.5-0.9
			c0,0,0,0,0,0c0-0.1,0.1-0.2,0.1-0.2c0.3-0.5,0.6-0.9,0.8-1.3c0-0.1,0.1-0.1,0.1-0.2c0.1-0.1,0.1-0.2,0.2-0.3
			c0.4-0.6,0.8-1.1,1.2-1.6c0,0,0.1-0.1,0.1-0.1c4.2,0.3,8.9,1.3,13.9,2.6C29,13.6,29.2,13.6,29.3,13.6z"/>
		<linearGradient id="SVGID_1_" gradientUnits="userSpaceOnUse" x1="52.4784" y1="17.9507" x2="63.3555" y2="17.9507">
			<stop  offset="0" style="stop-color:#FFFFFF"/>
			<stop  offset="1" style="stop-color:#C1272D"/>
		</linearGradient>
		<path class="st7" d="M54.7,7.2c-0.7,0.1-1.4,0.1-2.2,0.2c0.1,0.1,0.2,0.2,0.3,0.3c0.2,0.2,0.4,0.4,0.5,0.5
			c0.1,0.1,0.3,0.3,0.4,0.5c0.2,0.2,0.3,0.4,0.5,0.6c0.1,0.2,0.3,0.3,0.4,0.5c0.2,0.2,0.3,0.4,0.5,0.6c0.1,0.2,0.3,0.3,0.4,0.5
			c0.2,0.2,0.3,0.4,0.5,0.6c0.1,0.2,0.3,0.3,0.4,0.5c0.1,0.2,0.3,0.4,0.4,0.6c0.1,0.2,0.2,0.4,0.4,0.5c0.1,0.2,0.3,0.4,0.4,0.7
			c0.1,0.2,0.2,0.4,0.4,0.6c0.1,0.2,0.3,0.4,0.4,0.7c0.1,0.2,0.2,0.4,0.3,0.6c0.1,0.2,0.3,0.5,0.4,0.7c0.1,0.2,0.2,0.4,0.3,0.6
			c0.1,0.2,0.2,0.5,0.4,0.7c0.1,0.2,0.2,0.4,0.3,0.6c0.1,0.2,0.2,0.5,0.3,0.7c0.1,0.2,0.2,0.4,0.3,0.6c0.1,0.3,0.2,0.5,0.3,0.8
			c0.1,0.2,0.2,0.4,0.3,0.6c0.1,0.3,0.2,0.5,0.3,0.8c0.1,0.2,0.2,0.4,0.2,0.7c0.1,0.3,0.2,0.5,0.3,0.8c0.1,0.2,0.1,0.4,0.2,0.6
			c0.1,0.3,0.2,0.6,0.2,0.9c0.1,0.2,0.1,0.4,0.2,0.6c0.1,0.3,0.2,0.6,0.2,0.9c0,0.2,0.1,0.4,0.1,0.6c0.1,0.4,0.2,0.7,0.2,1.1
			c0,0.1,0.1,0.5,0.2,0.6C63.3,28.6,62.3,16.1,54.7,7.2z"/>
		<linearGradient id="SVGID_2_" gradientUnits="userSpaceOnUse" x1="14.945" y1="11.9353" x2="29.3124" y2="11.9353">
			<stop  offset="0" style="stop-color:#D8DF27"/>
			<stop  offset="1" style="stop-color:#006937"/>
		</linearGradient>
		<path class="st8" d="M14.9,10.9c4.3,0.4,9.2,1.3,14.4,2.8c0,0-6.2-2.6-13.8-3.4C15.3,10.4,15.1,10.7,14.9,10.9z"/>
	</g>
</g>
</svg>
